<?xml version="1.0" encoding="UTF-8"?>
<svg width="51.063mm" height="56.044mm" version="1.1" viewBox="0 0 51.063 56.044" xmlns="http://www.w3.org/2000/svg" xmlns:cc="http://creativecommons.org/ns#" xmlns:dc="http://purl.org/dc/elements/1.1/" xmlns:rdf="http://www.w3.org/1999/02/22-rdf-syntax-ns#">
 <metadata>
  <rdf:RDF>
   <cc:Work rdf:about="">
    <dc:format>image/svg+xml</dc:format>
    <dc:type rdf:resource="http://purl.org/dc/dcmitype/StillImage"/>
    <dc:title/>
   </cc:Work>
  </rdf:RDF>
 </metadata>
 <g transform="translate(-46.983 -82.502)">
  <path d="m50.019 83.419s-4.04 5.7888-1.9228 17.552c1.1884 6.6027 8.6267 18.996 8.6267 18.996 8.1824-5.2967 3.9093-2.6879 12.092-7.9846-6.9947-9.1686-12.816-18.675-18.796-28.563z" fill="#e0e0e0" stroke="#666"/>
  <path d="m89.183 138.55-25.748-23.105 4.8768-4.9036z" fill="#e0e0e0"/>
  <path d="m95.01 83.419s4.04 5.7888 1.9228 17.552c-1.1884 6.6027-8.6267 18.996-8.6267 18.996-8.1824-5.2967-3.9093-2.6879-12.092-7.9846 6.9947-9.1686 12.816-18.675 18.796-28.563z" fill="#fff" stroke="#666"/>
  <path d="m55.846 138.55 25.748-23.105-4.8768-4.9036z" fill="#fff"/>
  <circle cx="68.304" cy="113.02" r=".5" fill="#666"/>
  <circle cx="76.713" cy="113.02" r=".5" fill="#666"/>
 </g>
</svg>
